# xmcd CD database file
#
# Track frame offsets:
#	150
#	16612
#	32737
#	53027
#	77279
#	101128
#	122843
#	138913
#	154063
#	178302
#
# Disc length: 2697 seconds
#
# Revision: 1
# Processed by: cddbd v1.4PL0 Copyright (c) Steve Scherf et al.
# Submitted via: CDex 1.50
#
DISCID=750a870a
DTITLE=Jenny Zhang - Heaven on Earth
DYEAR=1900
DGENRE=New Age
TTITLE0=Heaven On Earth
TTITLE1=Breeze
TTITLE2=Shanghai, Shanghai
TTITLE3=Dance of Youth
TTITLE4=Love
TTITLE5=Return
TTITLE6=Magnolia Park
TTITLE7=I am
TTITLE8=Birds in a Foreign Land
TTITLE9=Dao
EXTD=
EXTT0=
EXTT1=
EXTT2=
EXTT3=
EXTT4=
EXTT5=
EXTT6=
EXTT7=
EXTT8=
EXTT9=
PLAYORDER=
